<?xml version="1.0" encoding="UTF-8" standalone="no"?>
<svg
   version="1.1"
   viewBox="0 0 1106 895"
   width="1106"
   height="895"
   id="svg106"
   xmlns="http://www.w3.org/2000/svg"
   xmlns:svg="http://www.w3.org/2000/svg">
  <defs
     id="defs106" />
  <g
     id="g106"
     style="display:inline"
     transform="translate(-402,-275)">
    <path
       transform="translate(896,275)"
       d="m 0,0 h 34 l 30,2 30,5 29,8 25,9 28,13 18,10 22,14 17,13 10,8 12,11 8,7 7,7 7,8 11,13 11,15 14,21 9,15 11,23 10,28 8,31 5,30 2,22 v 27 l -3,27 -4,20 -8,30 -5,15 -7,15 -8,16 -11,19 -10,15 -10,13 v 5 l 13,12 11,11 2,1 v 2 l 4,2 8,8 8,7 5,5 5,1 16,1 8,2 9,4 9,6 v 2 l 4,2 22,22 2,1 v 2 l 4,2 119,119 8,7 24,24 11,9 9,9 9,13 5,11 3,11 1,13 -2,13 -4,11 -5,9 -8,10 -10,8 -14,7 -16,3 -16,-1 -17,-5 -11,-7 -14,-12 -11,-11 -8,-7 -26,-26 -7,-8 -9,-9 -8,-7 -49,-49 -8,-7 -69,-69 v -2 h -2 l -9,-14 -3,-9 -1,-5 v -20 l -3,-5 -15,-15 -8,-7 -7,-7 -7,-8 -8,-8 -3,-1 -15,10 -16,9 -16,8 -15,7 -19,7 -20,6 -23,5 -19,3 -22,2 H 27 l -28,-3 -22,-4 -25,-6 -30,-10 -27,-12 -20,-10 -14,-9 -4,2 -20,20 -8,7 -10,9 v 5 l 6,12 4,16 v 23 l -1,7 6,2 22,12 25,13 22,12 25,13 22,12 25,13 22,12 7,3 h 2 l 2,-4 7,-7 10,-7 10,-5 13,-4 1,-76 4,-5 23,-1 5,3 1,11 1,68 7,3 10,4 16,8 5,-1 12,-12 11,-9 28,-24 11,-9 12,-11 h 2 v -2 l 10,-8 11,-10 11,-9 10,-9 7,-6 5,1 6,27 -1,6 -14,14 -8,7 -14,12 -12,11 -11,9 -12,11 -11,9 -12,11 -22,18 h -2 l 1,8 4,11 2,12 v 14 l -3,16 -7,16 -6,9 -10,11 -8,6 -16,8 -13,4 -4,1 H 55 l -16,-4 -17,-8 -13,-11 -8,-9 -8,-13 -5,-12 -2,-7 -1,-8 v -13 l 2,-16 -6,-2 -28,-15 -23,-12 -22,-12 -23,-12 -22,-12 -25,-13 -22,-12 -4,-1 -12,12 -13,8 -12,5 -12,3 -10,1 h -9 l -15,-2 -14,-5 -10,-6 -11,-9 -10,-11 -9,-16 -4,-12 -2,-12 1,-19 4,-15 8,-16 3,-4 -1,-5 -10,-12 -11,-14 -8,-10 -13,-16 -7,-9 -8,-10 -5,-6 -7,1 -13,4 h -2 v 216 l 10,3 17,8 10,8 9,9 7,11 5,10 5,20 v 14 l -3,16 -7,18 -6,8 -8,7 -7,6 -11,7 -10,5 -11,3 -8,1 h -16 l -18,-4 -16,-8 -9,-7 -10,-10 -7,-11 -4,-8 -4,-13 -1,-7 v -17 l 2,-13 4,-11 6,-11 7,-9 8,-8 14,-9 9,-4 10,-3 1,-1 V 524 l -17,-6 -11,-6 -14,-12 -9,-13 -6,-12 -3,-11 -1,-7 v -21 l 4,-16 8,-16 6,-8 10,-10 9,-6 16,-7 8,-3 V 166 l -8,-3 -11,-4 -12,-7 -11,-10 -7,-9 -8,-16 -3,-9 -2,-20 2,-17 4,-12 6,-11 8,-10 15,-15 5,-4 8,-4 16,-4 5,-1 h 16 l 15,3 11,4 14,8 13,12 8,11 6,11 4,15 1,6 v 19 l -2,13 4,4 35,21 13,8 1,5 -9,21 -3,4 -6,-1 -26,-16 -21,-13 -7,-1 -7,7 -14,9 -16,6 -4,1 -1,203 10,3 14,6 8,6 10,9 9,11 8,16 4,15 v 21 l -4,16 -5,12 -5,8 v 5 l 22,28 10,13 11,14 10,13 8,10 1,1 7,-1 10,-3 10,-2 h 25 l 15,4 16,8 4,-1 15,-16 8,-8 7,-8 2,-4 -11,-10 -8,-7 -14,-14 -7,-8 -11,-13 -7,-9 -12,-17 -10,-17 -9,-17 -11,-27 -9,-28 -6,-25 -3,-19 -1,-12 v -44 l 3,-24 5,-24 8,-27 8,-21 10,-21 9,-16 8,-12 12,-16 13,-16 7,-8 5,-5 13,-12 9,-7 10,-8 19,-13 15,-9 21,-11 24,-10 26,-8 25,-6 18,-3 z"
       fill="#c8fbfd"
       id="path2"
       style="display:inline;fill:#e2e8ee;fill-opacity:1" />
    <path
       transform="translate(896,348)"
       d="m 0,0 h 52 l 25,4 17,4 30,10 25,12 22,13 16,12 13,11 20,20 18,22 14,22 12,23 9,24 6,22 4,23 1,11 v 36 l -4,28 -6,22 -8,22 -8,16 -12,20 -12,16 -16,17 -9,9 -14,11 -17,12 -16,9 -16,8 -13,5 -21,7 -24,5 -14,2 -17,1 H 31 l -19,-2 -23,-4 -27,-7 -29,-12 -21,-11 -10,-6 -17,-12 -11,-9 -10,-8 -10,-10 -14,-16 -10,-13 -10,-15 -9,-16 -10,-21 -8,-24 -5,-23 -2,-15 v -46 l 4,-24 5,-19 6,-18 12,-25 8,-14 10,-15 11,-13 9,-10 10,-10 14,-11 9,-7 16,-10 16,-9 20,-9 21,-7 21,-5 z"
       fill="#3e4853"
       id="path5"
       style="display:inline;opacity:0.287" />
    <path
       transform="translate(1419,282)"
       d="m 0,0 h 24 l 14,4 16,8 4,5 8,7 7,7 9,14 5,14 2,10 v 14 l -2,14 -4,13 -7,12 -8,10 -11,10 -14,8 -14,5 -1,1 v 117 l 3,3 14,6 12,8 12,11 9,11 7,14 3,10 1,8 v 18 l -4,16 -8,16 -11,13 -9,8 -11,7 -12,5 -5,2 -1,249 -4,-1 -7,-8 -17,-17 -2,-5 -1,-217 -16,-6 -10,-5 -5,3 -9,10 -10,11 -9,11 -9,10 -9,11 -10,11 -9,11 -7,7 -7,8 -12,13 -2,2 -9,-1 -19,-5 -1,-3 7,-10 11,-13 12,-14 10,-11 9,-11 11,-12 7,-8 12,-14 9,-10 9,-11 4,-4 -1,-7 -7,-14 -4,-14 -60,-1 -2,-2 v -25 l 1,-1 7,-1 54,-1 4,-10 7,-14 9,-11 11,-10 14,-8 18,-6 1,-1 V 156 l -20,-8 -14,-10 -6,-3 -4,1 -34,24 -18,13 -34,24 -11,8 h -5 l -5,-10 -6,-15 1,-6 19,-13 6,-4 7,-3 18,-13 13,-9 5,-5 11,-8 16,-11 1,-5 -3,-12 V 66 l 4,-15 8,-16 8,-10 8,-8 13,-8 7,-4 14,-4 z"
       fill="#c8fbfd"
       id="path6"
       style="display:inline;fill:#e2e8ee;fill-opacity:1" />
    <path
       transform="translate(949,543)"
       d="m 0,0 h 20 l 14,3 13,5 12,7 11,9 v 2 h 2 l 11,14 9,17 3,11 93,1 5,3 1,2 v 15 l -2,9 -5,4 -5,1 -85,1 -7,18 -8,14 -12,14 -13,10 -16,8 -13,4 -1,2 v 66 l -3,7 -5,4 -4,1 H 7 l -10,-3 -4,-4 -1,-73 -18,-6 -11,-6 -5,-3 -5,1 -22,22 -8,7 -11,11 h -2 v 2 l -8,7 -10,10 -8,6 -8,-1 -14,-7 -8,-7 1,-5 19,-19 11,-9 9,-9 h 2 l 2,-4 10,-9 12,-11 4,-4 h 2 v -2 l 6,-5 1,-4 -7,-17 -3,-13 V 71 l 5,-16 7,-14 8,-11 11,-11 8,-6 9,-5 13,-5 z"
       fill="#c9fcfe"
       id="path7"
       style="display:inline;fill:#e2e8ee;fill-opacity:1" />
    <path
       transform="translate(899,386)"
       d="m 0,0 h 25 l 10,4 5,6 1,2 v 13 l -4,6 -5,4 -6,2 -31,3 -15,3 -24,9 -17,9 -15,10 -7,6 h -2 v 2 l -8,7 -10,11 -10,15 -11,21 -5,14 -6,30 -5,8 -8,4 h -11 l -6,-3 -6,-9 -1,-4 v -14 l 8,-32 6,-16 10,-18 12,-17 12,-14 8,-9 11,-9 18,-13 16,-9 12,-6 12,-5 20,-6 20,-4 z"
       fill="#c9fcfe"
       id="path8"
       style="display:inline;fill:#e2e8ee;fill-opacity:1" />
  </g>
</svg>
